<svg xmlns="http://www.w3.org/2000/svg" viewBox="0 0 1024 1024">
  <!-- Rounded rectangle with dark blue gradient background -->
  <rect x="0" y="0" width="1024" height="1024" rx="224" ry="224" fill="url(#darkBlueGradient)" />
  
  <!-- Define the dark blue gradient -->
  <defs>
    <linearGradient id="darkBlueGradient" x1="0%" y1="0%" x2="100%" y2="100%">
      <stop offset="0%" stop-color="#071321" />
      <stop offset="50%" stop-color="#19294d" />
      <stop offset="100%" stop-color="#2a3f66" />
    </linearGradient>
    
    <!-- Define the icon gradient -->
    <linearGradient id="iconGradient" x1="0%" y1="0%" x2="100%" y2="100%">
      <stop offset="0%" stop-color="#4ca5ff" />
      <stop offset="100%" stop-color="#b8e1ff" />
    </linearGradient>
  </defs>
  
  <!-- Centered icon with light blue gradient -->
  <g transform="translate(256, 256) scale(21.33)">
    <path
      d="M12 6C8.68629 6 6 8.68629 6 12H1C1 5.92487 5.92487 1 12 1C18.0751 1 23 5.92487 23 12C23 18.0751 18.0751 23 12 23V18C15.3137 18 18 15.3137 18 12C18 8.68629 15.3137 6 12 6Z"
      fill="url(#iconGradient)"
    />
    <path d="M7 18V13H12V18H7Z" fill="url(#iconGradient)" />
    <path d="M3 18V22H7V18H3Z" fill="url(#iconGradient)" />
    <path d="M3 18H1V16H3V18Z" fill="url(#iconGradient)" />
  </g>
</svg> 