<svg xmlns="http://www.w3.org/2000/svg" viewBox="0 0 1024 1024">
  <!-- Rounded rectangle with blue gradient background -->
  <rect x="0" y="0" width="1024" height="1024" rx="224" ry="224" fill="url(#blueGradient)" />
  
  <!-- Define the blue gradient -->
  <defs>
    <linearGradient id="blueGradient" x1="0%" y1="0%" x2="100%" y2="100%">
      <stop offset="0%" stop-color="#052d4a" />
      <stop offset="50%" stop-color="#4364f7" />
      <stop offset="100%" stop-color="#6fb1fc" />
    </linearGradient>
  </defs>
  
  <!-- Centered white icon -->
  <g transform="translate(256, 256) scale(21.33)">
    <path
      d="M12 6C8.68629 6 6 8.68629 6 12H1C1 5.92487 5.92487 1 12 1C18.0751 1 23 5.92487 23 12C23 18.0751 18.0751 23 12 23V18C15.3137 18 18 15.3137 18 12C18 8.68629 15.3137 6 12 6Z"
      fill="white"
    />
    <path d="M7 18V13H12V18H7Z" fill="white" />
    <path d="M3 18V22H7V18H3Z" fill="white" />
    <path d="M3 18H1V16H3V18Z" fill="white" />
  </g>
</svg> 